HIERARCHY
ROOT Root
{
  OFFSET 0.0 0.0 0.0
  CHANNELS 6 Xposition Yposition Zposition Zrotation Yrotation Xrotation
  JOINT Hips
  {
    OFFSET 0.0 100.0 0.0
    CHANNELS 6 Xposition Yposition Zposition Zrotation Yrotation Xrotation
    JOINT Spine1
    {
      OFFSET 5.003913 -0.037094 -0.013727
      CHANNELS 3 Zrotation Yrotation Xrotation
      JOINT Spine2
      {
        OFFSET 7.125363 -1e-06 0.0
        CHANNELS 3 Zrotation Yrotation Xrotation
        JOINT Chest
        {
          OFFSET 7.594027 1e-06 0.0
          CHANNELS 3 Zrotation Yrotation Xrotation
          JOINT Neck1
          {
            OFFSET 26.313086 -0.460272 -0.181672
            CHANNELS 3 Zrotation Yrotation Xrotation
            JOINT Neck2
            {
              OFFSET 8.045911 0.0 0.0
              CHANNELS 3 Zrotation Yrotation Xrotation
              JOINT Head
              {
                OFFSET 6.432774 0.0 0.0
                CHANNELS 3 Zrotation Yrotation Xrotation
                JOINT HeadEnd
                {
                  OFFSET 16.169773 0.06451 0.00362
                  CHANNELS 3 Zrotation Yrotation Xrotation
                }
                JOINT Jaw
                {
                  OFFSET 0.108741 3.12938 0.002639
                  CHANNELS 3 Zrotation Yrotation Xrotation
                }
                JOINT LeftEye
                {
                  OFFSET 4.45173 8.166359 3.206392
                  CHANNELS 3 Zrotation Yrotation Xrotation
                }
                JOINT RightEye
                {
                  OFFSET 4.436895 8.135758 -3.222429
                  CHANNELS 3 Zrotation Yrotation Xrotation
                }
              }
            }
          }
          JOINT LeftShoulder
          {
            OFFSET 23.218927 5.195579 1.621656
            CHANNELS 3 Zrotation Yrotation Xrotation
            JOINT LeftArm
            {
              OFFSET 15.902118 2e-06 -2e-06
              CHANNELS 3 Zrotation Yrotation Xrotation
              JOINT LeftForeArm
              {
                OFFSET 28.739307 0.0 -1e-06
                CHANNELS 3 Zrotation Yrotation Xrotation
                JOINT LeftHand
                {
                  OFFSET 27.093981 -4e-06 0.0
                  CHANNELS 3 Zrotation Yrotation Xrotation
                  JOINT LeftHandThumb1
                  {
                    OFFSET 2.276781 3.380274 0.83384
                    CHANNELS 3 Zrotation Yrotation Xrotation
                    JOINT LeftHandThumb2
                    {
                      OFFSET 4.705309 -1e-06 -1e-06
                      CHANNELS 3 Zrotation Yrotation Xrotation
                      JOINT LeftHandThumb3
                      {
                        OFFSET 2.798515 0.0 3e-06
                        CHANNELS 3 Zrotation Yrotation Xrotation
                        JOINT LeftHandThumbEnd
                        {
                          OFFSET 3.180793 4e-06 -4e-06
                          CHANNELS 3 Zrotation Yrotation Xrotation
                        }
                      }
                    }
                  }
                  JOINT LeftHandIndex1
                  {
                    OFFSET 3.247786 2.352677 0.137192
                    CHANNELS 3 Zrotation Yrotation Xrotation
                    JOINT LeftHandIndex2
                    {
                      OFFSET 6.367095 1e-06 0.0
                      CHANNELS 3 Zrotation Yrotation Xrotation
                      JOINT LeftHandIndex3
                      {
                        OFFSET 3.662364 0.0 0.0
                        CHANNELS 3 Zrotation Yrotation Xrotation
                        JOINT LeftHandIndex4
                        {
                          OFFSET 2.329242 4e-06 -4e-06
                          CHANNELS 3 Zrotation Yrotation Xrotation
                          JOINT LeftHandIndexEnd
                          {
                            OFFSET 2.767823 1e-06 0.0
                            CHANNELS 3 Zrotation Yrotation Xrotation
                          }
                        }
                      }
                    }
                  }
                  JOINT LeftHandMiddle1
                  {
                    OFFSET 3.163612 0.945023 -0.406112
                    CHANNELS 3 Zrotation Yrotation Xrotation
                    JOINT LeftHandMiddle2
                    {
                      OFFSET 6.276789 3e-06 0.0
                      CHANNELS 3 Zrotation Yrotation Xrotation
                      JOINT LeftHandMiddle3
                      {
                        OFFSET 4.35652 -1e-06 4e-06
                        CHANNELS 3 Zrotation Yrotation Xrotation
                        JOINT LeftHandMiddle4
                        {
                          OFFSET 2.996877 0.0 8e-06
                          CHANNELS 3 Zrotation Yrotation Xrotation
                          JOINT LeftHandMiddleEnd
                          {
                            OFFSET 2.323256 3e-06 -4e-06
                            CHANNELS 3 Zrotation Yrotation Xrotation
                          }
                        }
                      }
                    }
                  }
                  JOINT LeftHandRing1
                  {
                    OFFSET 2.882606 -0.309162 0.107445
                    CHANNELS 3 Zrotation Yrotation Xrotation
                    JOINT LeftHandRing2
                    {
                      OFFSET 6.033198 0.0 4e-06
                      CHANNELS 3 Zrotation Yrotation Xrotation
                      JOINT LeftHandRing3
                      {
                        OFFSET 4.350578 3e-06 0.0
                        CHANNELS 3 Zrotation Yrotation Xrotation
                        JOINT LeftHandRing4
                        {
                          OFFSET 2.651321 2e-06 -7e-06
                          CHANNELS 3 Zrotation Yrotation Xrotation
                          JOINT LeftHandRingEnd
                          {
                            OFFSET 1.937663 1e-06 -4e-06
                            CHANNELS 3 Zrotation Yrotation Xrotation
                          }
                        }
                      }
                    }
                  }
                  JOINT LeftHandPinky1
                  {
                    OFFSET 2.865315 -1.525436 0.575687
                    CHANNELS 3 Zrotation Yrotation Xrotation
                    JOINT LeftHandPinky2
                    {
                      OFFSET 5.54936 1e-06 -8e-06
                      CHANNELS 3 Zrotation Yrotation Xrotation
                      JOINT LeftHandPinky3
                      {
                        OFFSET 3.070974 0.0 -4e-06
                        CHANNELS 3 Zrotation Yrotation Xrotation
                        JOINT LeftHandPinky4
                        {
                          OFFSET 1.549672 1e-06 0.0
                          CHANNELS 3 Zrotation Yrotation Xrotation
                          JOINT LeftHandPinkyEnd
                          {
                            OFFSET 1.952123 0.0 0.0
                            CHANNELS 3 Zrotation Yrotation Xrotation
                          }
                        }
                      }
                    }
                  }
                }
              }
            }
          }
          JOINT RightShoulder
          {
            OFFSET 23.161716 5.296122 -1.380114
            CHANNELS 3 Zrotation Yrotation Xrotation
            JOINT RightArm
            {
              OFFSET -16.027195 -2e-06 1.1e-05
              CHANNELS 3 Zrotation Yrotation Xrotation
              JOINT RightForeArm
              {
                OFFSET -28.736639 4e-06 2e-06
                CHANNELS 3 Zrotation Yrotation Xrotation
                JOINT RightHand
                {
                  OFFSET -27.133619 6e-06 0.0
                  CHANNELS 3 Zrotation Yrotation Xrotation
                  JOINT RightHandThumb1
                  {
                    OFFSET -2.274328 -3.351035 -0.83067
                    CHANNELS 3 Zrotation Yrotation Xrotation
                    JOINT RightHandThumb2
                    {
                      OFFSET -4.703594 -3e-06 2e-06
                      CHANNELS 3 Zrotation Yrotation Xrotation
                      JOINT RightHandThumb3
                      {
                        OFFSET -2.794935 -4e-06 -3e-06
                        CHANNELS 3 Zrotation Yrotation Xrotation
                        JOINT RightHandThumbEnd
                        {
                          OFFSET -3.183852 4e-06 1e-06
                          CHANNELS 3 Zrotation Yrotation Xrotation
                        }
                      }
                    }
                  }
                  JOINT RightHandIndex1
                  {
                    OFFSET -3.253496 -2.33755 -0.127667
                    CHANNELS 3 Zrotation Yrotation Xrotation
                    JOINT RightHandIndex2
                    {
                      OFFSET -6.344434 0.0 0.0
                      CHANNELS 3 Zrotation Yrotation Xrotation
                      JOINT RightHandIndex3
                      {
                        OFFSET -3.654871 0.0 -8e-06
                        CHANNELS 3 Zrotation Yrotation Xrotation
                        JOINT RightHandIndex4
                        {
                          OFFSET -2.327586 -1e-06 0.0
                          CHANNELS 3 Zrotation Yrotation Xrotation
                          JOINT RightHandIndexEnd
                          {
                            OFFSET -2.770001 3e-06 8e-06
                            CHANNELS 3 Zrotation Yrotation Xrotation
                          }
                        }
                      }
                    }
                  }
                  JOINT RightHandMiddle1
                  {
                    OFFSET -3.168223 -0.944764 0.411762
                    CHANNELS 3 Zrotation Yrotation Xrotation
                    JOINT RightHandMiddle2
                    {
                      OFFSET -6.266691 -1e-06 -4e-06
                      CHANNELS 3 Zrotation Yrotation Xrotation
                      JOINT RightHandMiddle3
                      {
                        OFFSET -4.348901 0.0 0.0
                        CHANNELS 3 Zrotation Yrotation Xrotation
                        JOINT RightHandMiddle4
                        {
                          OFFSET -3.00024 2e-06 -4e-06
                          CHANNELS 3 Zrotation Yrotation Xrotation
                          JOINT RightHandMiddleEnd
                          {
                            OFFSET -2.321477 -4e-06 -4e-06
                            CHANNELS 3 Zrotation Yrotation Xrotation
                          }
                        }
                      }
                    }
                  }
                  JOINT RightHandRing1
                  {
                    OFFSET -2.885654 0.293261 -0.119232
                    CHANNELS 3 Zrotation Yrotation Xrotation
                    JOINT RightHandRing2
                    {
                      OFFSET -6.032835 -1e-06 -4e-06
                      CHANNELS 3 Zrotation Yrotation Xrotation
                      JOINT RightHandRing3
                      {
                        OFFSET -4.33881 0.0 -4e-06
                        CHANNELS 3 Zrotation Yrotation Xrotation
                        JOINT RightHandRing4
                        {
                          OFFSET -2.654903 -4e-06 -4e-06
                          CHANNELS 3 Zrotation Yrotation Xrotation
                          JOINT RightHandRingEnd
                          {
                            OFFSET -1.935122 0.0 4e-06
                            CHANNELS 3 Zrotation Yrotation Xrotation
                          }
                        }
                      }
                    }
                  }
                  JOINT RightHandPinky1
                  {
                    OFFSET -2.866241 1.503904 -0.60527
                    CHANNELS 3 Zrotation Yrotation Xrotation
                    JOINT RightHandPinky2
                    {
                      OFFSET -5.553177 -2e-06 0.0
                      CHANNELS 3 Zrotation Yrotation Xrotation
                      JOINT RightHandPinky3
                      {
                        OFFSET -3.062664 -1e-06 -4e-06
                        CHANNELS 3 Zrotation Yrotation Xrotation
                        JOINT RightHandPinky4
                        {
                          OFFSET -1.546529 2e-06 4e-06
                          CHANNELS 3 Zrotation Yrotation Xrotation
                          JOINT RightHandPinkyEnd
                          {
                            OFFSET -1.952341 0.0 -4e-06
                            CHANNELS 3 Zrotation Yrotation Xrotation
                          }
                        }
                      }
                    }
                  }
                }
              }
            }
          }
        }
      }
    }
    JOINT LeftLeg
    {
      OFFSET -8.443107 2.567604 10.043214
      CHANNELS 3 Zrotation Yrotation Xrotation
      JOINT LeftShin
      {
        OFFSET 43.229198 1e-06 -1e-06
        CHANNELS 3 Zrotation Yrotation Xrotation
        JOINT LeftFoot
        {
          OFFSET 42.298611 1e-06 1e-06
          CHANNELS 3 Zrotation Yrotation Xrotation
          JOINT LeftToeBase
          {
            OFFSET 14.165858 1e-06 0.0
            CHANNELS 3 Zrotation Yrotation Xrotation
            JOINT LeftToeEnd
            {
              OFFSET 6.7141 -0.234461 0.0
              CHANNELS 3 Zrotation Yrotation Xrotation
            }
          }
        }
      }
    }
    JOINT RightLeg
    {
      OFFSET -8.303923 2.592729 -10.047278
      CHANNELS 3 Zrotation Yrotation Xrotation
      JOINT RightShin
      {
        OFFSET -43.369682 0.0 1e-06
        CHANNELS 3 Zrotation Yrotation Xrotation
        JOINT RightFoot
        {
          OFFSET -42.260784 4e-06 2e-06
          CHANNELS 3 Zrotation Yrotation Xrotation
          JOINT RightToeBase
          {
            OFFSET -14.222245 -2e-06 -1e-06
            CHANNELS 3 Zrotation Yrotation Xrotation
            JOINT RightToeEnd
            {
              OFFSET -6.660062 0.232574 -2e-06
              CHANNELS 3 Zrotation Yrotation Xrotation
            }
          }
        }
      }
    }
  }
}
MOTION
Frames: 4
Frame Time: 0.03333333333333333
0.0 0.0 0.0 0.0 -0.0 0.0 -6.773151 13.284594 109.92392 63.134048 -86.190132 117.046989 -0.196862 0.314654 0.212304 -11.310681 -0.104299 0.175608 9.412668 1.335586 -0.586238 0.206992 0.330566 2.507869 -2.818357 -0.188803 -1.25386 -32.41148 2.494539 -3.070224 7e-06 -0.0 0.0 -0.24574 -0.134813 0.117448 -0.385455 -0.090433 0.17872 -0.224379 -0.176647 0.05376 -51.547447 -68.873848 63.681114 -13.51124 -55.289936 22.276869 129.657394 -1.257953 2.617417 58.535801 34.931293 62.934196 17.636627 -26.322735 52.411198 -19.466665 -14.395598 29.410393 0.0 -8.774822 -2e-06 13.95178 -17.959433 6.577355 -0.609776 -1.795653 -3.889328 -4.807088 -11.046816 -2.93785 4e-06 -20.976025 -1e-06 -5.019972 -25.033564 -4.031881 5e-06 1e-06 0.0 -10.634535 -5.686973 -3.565586 10.573275 -17.922955 -3.113902 1e-06 -13.821215 1e-06 -0.501778 -31.181511 -4.027019 -9.695799 -58.052689 5.20401 -13.982715 -7.150199 -2.875041 13.772729 -8.401494 -3.218242 0.347733 -34.211555 0.771651 -0.96303 -17.733372 2.621018 0.0 0.0 -0.0 -17.346422 -20.095226 -4.201778 21.757559 -1.638373 3.866428 1e-06 -6.338825 0.0 -1.697589 -22.591755 -6.194009 -0.0 -5e-06 -2e-06 119.24176 -74.971283 72.402328 -16.471622 -61.605396 33.453777 138.786224 6.398658 0.500951 38.972023 27.050966 77.615044 22.182108 -20.375887 49.933296 -16.701815 -16.743525 28.476521 -3e-06 -12.690598 -0.0 16.229219 -18.791435 2.763857 -0.10592 -1.513856 -4.27588 -5.03904 -5.612872 -2.953556 5e-06 -11.02052 -1e-06 -6.111296 -15.89533 -3.84047 -0.0 1e-06 1e-06 -10.283367 -5.680286 -4.341837 11.028292 -11.302402 -2.372633 -1.384269 -14.238581 -6.32012 -0.625437 -26.924183 -3.827599 -4.360644 -50.615879 -4.11205 -13.708524 -7.363472 -3.720938 18.14115 -14.052738 -3.242676 7e-06 -18.787268 -3e-06 -0.429711 -8.456042 2.555503 -0.0 0.0 1e-06 -15.923532 -20.094477 -5.473583 30.419207 -7.190823 1.735923 2e-06 -8.162921 -0.0 -1.8619 -22.86146 -6.167941 -1e-06 -3e-06 -0.0 -179.415192 -19.192642 -84.208138 14.555659 -17.611034 52.66946 -100.960815 34.204742 -23.960407 -17.065836 1.290431 2.346921 -0.999999 0.0 0.0 -0.927054 -11.222712 -91.616264 17.088327 -26.878389 62.396526 -107.905357 27.030869 -20.061712 -12.466269 0.580488 1.612773 -1.000002 -0.0 -0.0 
0.0 0.0 0.0 0.0 -0.0 0.0 -6.783209 13.205737 110.126518 62.004753 -86.816544 118.459404 -0.182339 0.379323 0.204428 -11.44516 -0.158713 0.171875 9.745567 1.318804 -0.479861 0.631697 -0.522606 2.50927 -2.850146 -0.164351 -1.606385 -32.816216 2.909106 -3.522261 6e-06 -0.0 0.0 -0.255603 -0.175187 0.152022 -0.364152 -0.145324 0.211796 -0.24469 -0.199073 0.090624 -52.264557 -68.824043 64.66275 -15.874085 -56.162338 25.781813 129.369263 -0.0333 2.100356 60.997765 34.307182 63.733841 17.636623 -26.322731 52.411182 -19.466661 -14.395597 29.410389 -1e-06 -8.774821 -1e-06 14.037819 -17.742628 6.390352 -0.609776 -1.795653 -3.889329 -4.807087 -11.046809 -2.937849 5e-06 -20.976015 -1e-06 -5.019968 -25.033556 -4.031879 6e-06 -0.0 -0.0 -10.634532 -5.686969 -3.565589 10.573272 -17.922951 -3.113902 3e-06 -13.821206 1e-06 -0.501774 -31.181498 -4.027015 -9.520805 -57.805973 5.082386 -13.982712 -7.150196 -2.875041 13.772728 -8.401494 -3.218242 0.347736 -34.211544 0.771654 -0.963027 -17.733366 2.621019 0.0 -0.0 -0.0 -17.346413 -20.095215 -4.201783 21.757555 -1.638375 3.866426 2e-06 -6.338822 1e-06 -1.697591 -22.591749 -6.194006 -1e-06 -5e-06 -2e-06 122.089424 -74.512444 70.171585 -17.577314 -59.95155 33.000084 139.517365 5.573074 0.823996 39.613098 27.862526 76.206268 22.182116 -20.375895 49.933315 -16.701811 -16.743528 28.476526 0.0 -12.6906 -1e-06 16.288157 -18.767742 2.628284 -0.10592 -1.513855 -4.275881 -5.03904 -5.612872 -2.953556 5e-06 -11.02052 -2e-06 -6.111297 -15.895334 -3.840469 0.0 -0.0 0.0 -10.283369 -5.680286 -4.341839 11.028293 -11.302404 -2.372632 -1.384268 -14.238582 -6.320119 -0.625437 -26.924185 -3.827602 -4.239279 -50.659664 -4.124396 -13.708524 -7.363474 -3.720939 18.14115 -14.052736 -3.242674 6e-06 -18.78727 -1e-06 -0.42971 -8.456041 2.555503 0.0 -1e-06 1e-06 -15.923536 -20.094482 -5.473581 30.41921 -7.190824 1.735927 2e-06 -8.162924 0.0 -1.8619 -22.861469 -6.167942 -1e-06 -3e-06 -1e-06 -179.431274 -17.96805 -84.544899 13.118763 -16.676289 53.562721 -101.199615 33.961113 -23.475134 -16.508385 1.274778 2.379871 -0.999998 0.0 -1e-06 0.024757 -11.447343 -93.616402 14.466486 -25.014063 65.382004 -107.265953 26.438709 -20.47718 -12.271041 0.588463 1.62857 -1.000002 -0.0 -0.0 
0.0 0.0 0.0 0.0 -0.0 0.0 -6.83936 13.285035 110.339096 63.664848 -87.13044 117.186569 -0.230964 0.456421 0.241552 -11.583151 -0.144095 0.182058 10.053 1.163026 -0.377188 1.172005 -0.963314 2.485994 -2.859925 -0.160356 -1.852331 -33.146206 3.203942 -3.904351 6e-06 0.0 0.0 -0.260567 -0.215961 0.184604 -0.353461 -0.192114 0.238291 -0.265174 -0.229665 0.128775 -52.943348 -68.876129 65.584709 -15.231549 -56.651615 25.971497 129.098007 0.824484 1.924733 61.553146 33.981651 63.806335 17.636633 -26.322735 52.411201 -19.466663 -14.395596 29.410393 -1e-06 -8.774822 -2e-06 14.185779 -17.717518 6.266054 -0.609777 -1.795655 -3.88933 -4.807092 -11.046813 -2.937848 3e-06 -20.976021 -1e-06 -5.019972 -25.033562 -4.031884 5e-06 1e-06 -1e-06 -10.634537 -5.686975 -3.565588 10.573274 -17.922955 -3.113899 2e-06 -13.821213 -1e-06 -0.501779 -31.181511 -4.027018 -9.516092 -57.778648 5.105706 -13.982718 -7.150201 -2.875043 13.772731 -8.401493 -3.218241 0.34773 -34.211559 0.771653 -0.96303 -17.733376 2.621019 -0.0 -0.0 0.0 -17.346426 -20.095224 -4.20178 21.757563 -1.638372 3.866428 1e-06 -6.338825 1e-06 -1.697592 -22.591757 -6.194009 -1e-06 -6e-06 -2e-06 124.353401 -74.27636 68.359489 -18.002155 -58.805668 32.190449 140.098724 4.956537 0.961617 39.514336 28.376474 75.197601 22.182116 -20.3759 49.933319 -16.701813 -16.743528 28.47653 -0.0 -12.690601 -1e-06 16.23106 -18.695614 2.61317 -0.105919 -1.513857 -4.27588 -5.039041 -5.612872 -2.953556 4e-06 -11.020523 -1e-06 -6.1113 -15.895334 -3.840471 -1e-06 -1e-06 -1e-06 -10.283372 -5.680289 -4.341838 11.028296 -11.302403 -2.372633 -1.384271 -14.238586 -6.32012 -0.625438 -26.924194 -3.827603 -4.26442 -50.661991 -3.995697 -13.708524 -7.363478 -3.720939 18.141148 -14.052739 -3.242673 4e-06 -18.787271 -2e-06 -0.429713 -8.456045 2.555504 -1e-06 -0.0 0.0 -15.923536 -20.094486 -5.473582 30.41921 -7.190825 1.735927 2e-06 -8.162928 -1e-06 -1.861904 -22.861479 -6.167943 0.0 -2e-06 -1e-06 -179.258652 -16.858061 -84.558167 12.087241 -15.500491 53.863678 -101.254448 33.247406 -23.29402 -16.307775 1.288699 2.391334 -0.999999 0.0 -0.0 1.335747 -11.47569 -96.058167 11.66772 -22.502016 68.445412 -106.745316 26.323263 -21.241411 -12.241242 0.598954 1.610869 -1.000002 -0.0 -1e-06 
0.0 0.0 0.0 0.0 -0.0 0.0 -6.955354 13.192731 110.521935 66.741997 -87.364403 114.492958 -0.364635 0.459738 0.28062 -11.712506 -0.10514 0.223874 10.237482 0.938721 -0.278666 1.54328 -0.956103 2.482676 -2.853904 -0.197932 -1.925738 -33.323658 3.413525 -4.289076 7e-06 -0.0 -0.0 -0.262177 -0.244655 0.206584 -0.343744 -0.219313 0.254424 -0.27192 -0.256198 0.154719 -53.629799 -69.087486 66.509834 -12.818851 -56.567951 23.540007 129.122604 1.157744 1.982202 60.929585 34.015564 63.43845 17.636639 -26.322737 52.41119 -19.466661 -14.395597 29.410385 -1e-06 -8.774822 -2e-06 14.328955 -17.834476 6.207588 -0.609777 -1.795654 -3.889328 -4.807089 -11.046811 -2.937848 4e-06 -20.976017 1e-06 -5.019971 -25.033556 -4.03188 7e-06 -0.0 -0.0 -10.634536 -5.686972 -3.565588 10.573274 -17.922951 -3.113898 4e-06 -13.821209 1e-06 -0.501778 -31.181505 -4.027012 -9.651733 -57.938499 5.283761 -13.982715 -7.150198 -2.875042 13.772731 -8.401493 -3.218241 0.347733 -34.211552 0.771656 -0.963028 -17.73337 2.621021 -0.0 -0.0 0.0 -17.346422 -20.095217 -4.201779 21.757559 -1.638375 3.86643 1e-06 -6.338821 2e-06 -1.69759 -22.591747 -6.194006 -0.0 -5e-06 -2e-06 125.81218 -74.431458 67.23494 -18.414288 -57.838158 31.014833 141.070541 4.391654 1.055416 38.798779 28.78306 74.129272 22.182123 -20.3759 49.933331 -16.701817 -16.743528 28.476538 0.0 -12.690604 -3e-06 16.074062 -18.610905 2.688787 -0.10592 -1.513854 -4.275882 -5.039043 -5.612873 -2.953558 2e-06 -11.02053 -1e-06 -6.1113 -15.895339 -3.840472 0.0 1e-06 -0.0 -10.283373 -5.680292 -4.34184 11.028295 -11.302407 -2.372632 -1.38427 -14.23859 -6.320123 -0.625441 -26.924198 -3.827601 -4.33277 -50.626133 -3.893874 -13.708528 -7.36348 -3.72094 18.141151 -14.052743 -3.242674 3e-06 -18.787281 -2e-06 -0.429711 -8.456047 2.555504 -1e-06 -1e-06 0.0 -15.923539 -20.0945 -5.473587 30.419218 -7.190826 1.73593 2e-06 -8.162929 -2e-06 -1.861903 -22.861479 -6.167945 -1e-06 -3e-06 -1e-06 -178.904144 -15.873636 -84.682693 11.263941 -14.307281 53.980362 -101.320168 32.364044 -23.397953 -15.934743 1.315008 2.395439 -0.999997 -0.0 0.0 2.694705 -11.18207 -98.946136 8.710644 -19.563953 71.690422 -106.161751 26.094347 -22.355244 -12.361718 0.598472 1.590517 -1.000002 0.0 0.0 
